<?xml version="1.0" standalone="no"?>
<!DOCTYPE svg PUBLIC "-//W3C//DTD SVG 20010904//EN"
 "http://www.w3.org/TR/2001/REC-SVG-20010904/DTD/svg10.dtd">
<svg version="1.0" xmlns="http://www.w3.org/2000/svg"
 width="96.000000pt" height="96.000000pt" viewBox="0 0 96.000000 96.000000"
 preserveAspectRatio="xMidYMid meet">

<g transform="translate(0.000000,96.000000) scale(0.100000,-0.100000)"
fill="#000000" stroke="none">
<path d="M441 863 c-102 -53 -101 -175 2 -226 65 -33 145 7 168 83 10 32 9 44
-7 76 -35 71 -103 98 -163 67z"/>
<path d="M325 532 c-58 -43 -192 -183 -200 -209 -9 -30 7 -56 83 -138 75 -80
84 -87 105 -79 32 12 27 38 -24 116 -30 45 -48 82 -43 87 5 4 25 17 45 29 l36
22 17 -123 c10 -67 23 -125 29 -129 16 -10 218 -10 234 0 6 4 19 62 29 130 17
120 18 122 38 109 12 -8 31 -20 44 -28 12 -8 22 -18 22 -23 0 -4 -22 -39 -50
-77 -55 -75 -60 -93 -31 -109 28 -14 38 -8 119 83 98 111 98 122 -5 229 -43
45 -96 94 -118 110 l-39 29 -53 -103 c-58 -115 -59 -118 -38 -118 11 0 15 -12
15 -50 l0 -50 -50 0 -50 0 0 50 c0 38 4 50 15 50 21 0 20 3 -38 118 l-53 103
-39 -29z"/>
<path d="M420 555 c0 -10 65 -135 70 -135 5 0 70 125 70 135 0 3 -31 5 -70 5
-38 0 -70 -2 -70 -5z"/>
</g>
</svg>
